<svg width="33" height="32" viewBox="0 0 33 32" fill="none" xmlns="http://www.w3.org/2000/svg">
<path opacity="0.961" fill-rule="evenodd" clip-rule="evenodd" d="M4.37732 2.21875C8.3982 2.20833 12.4191 2.21875 16.4398 2.25C17.21 2.55107 17.4704 3.10315 17.2211 3.90625C17.0374 4.28486 16.7354 4.50361 16.3148 4.5625C12.8357 4.59375 9.35657 4.60417 5.87732 4.59375C5.87732 12.1771 5.87732 19.7604 5.87732 27.3438C9.35657 27.3333 12.8357 27.3438 16.3148 27.375C16.9598 27.4865 17.2931 27.8719 17.3148 28.5312C17.3169 29.1425 17.0253 29.5279 16.4398 29.6875C12.419 29.7292 8.39813 29.7292 4.37732 29.6875C4.00227 29.604 3.74185 29.3853 3.59607 29.0312C3.49242 20.4292 3.47159 11.8251 3.53357 3.21875C3.60348 2.70136 3.88473 2.36803 4.37732 2.21875Z" fill="#576075"/>
<path opacity="0.963" fill-rule="evenodd" clip-rule="evenodd" d="M22.7524 10.2188C23.0899 10.1854 23.4024 10.2584 23.6899 10.4375C25.2836 12.0313 26.8774 13.625 28.4711 15.2188C28.8456 15.7177 28.8456 16.2177 28.4711 16.7188C26.8774 18.3125 25.2836 19.9063 23.6899 21.5C22.9136 21.8975 22.3198 21.7204 21.9086 20.9688C21.7652 20.5745 21.8069 20.1995 22.0336 19.8438C22.9191 18.9584 23.8044 18.073 24.6899 17.1875C21.0024 17.1667 17.3149 17.1459 13.6274 17.125C12.8201 16.8972 12.5181 16.366 12.7211 15.5313C12.8943 15.1289 13.1964 14.8894 13.6274 14.8125C17.3149 14.7917 21.0024 14.7709 24.6899 14.75C23.8044 13.8646 22.9191 12.9792 22.0336 12.0938C21.6042 11.2044 21.8438 10.5794 22.7524 10.2188Z" fill="#576075"/>
</svg>
