<svg width="56" height="42" viewBox="0 0 56 42" fill="none" xmlns="http://www.w3.org/2000/svg">
<rect x="1" y="3" width="54" height="37" fill="url(#paint0_linear_402_897)" fill-opacity="0.2"/>
<rect y="40" width="56" height="2" rx="1" fill="#E1BF6B"/>
<path opacity="0.986" fill-rule="evenodd" clip-rule="evenodd" d="M14.6723 0.00404337C16.3093 -0.00673949 17.9463 0.00404337 19.583 0.0364049C20.1634 0.325918 20.3681 0.789762 20.1969 1.42795C20.0784 1.71921 19.8738 1.92416 19.583 2.04282C18.4202 2.07518 17.2571 2.08596 16.0938 2.07518C16.1046 3.2404 16.0938 4.40541 16.0615 5.57023C15.7725 6.15157 15.3094 6.35655 14.6723 6.1851C14.3815 6.06646 14.1769 5.86148 14.0584 5.57023C14.0154 3.93058 14.0154 2.29092 14.0584 0.651274C14.1891 0.358726 14.3937 0.142984 14.6723 0.00404337Z" fill="white"/>
<path opacity="0.986" fill-rule="evenodd" clip-rule="evenodd" d="M37.4169 0.00404337C39.054 -0.00673949 40.6909 0.00404337 42.3277 0.0364049C42.6185 0.155062 42.8231 0.36002 42.9416 0.651274C42.9847 2.29092 42.9847 3.93058 42.9416 5.57023C42.6525 6.15157 42.1894 6.35655 41.5523 6.1851C41.2616 6.06646 41.0569 5.86148 40.9385 5.57023C40.9062 4.40541 40.8954 3.2404 40.9062 2.07518C39.7429 2.08596 38.5798 2.07518 37.4169 2.04282C36.8366 1.75331 36.6319 1.28946 36.8031 0.651274C36.9338 0.358726 37.1384 0.142984 37.4169 0.00404337Z" fill="white"/>
<path opacity="0.996" fill-rule="evenodd" clip-rule="evenodd" d="M18.8077 4.14638C20.1002 4.13559 21.3925 4.14638 22.6846 4.17874C22.9754 4.2974 23.18 4.50235 23.2985 4.79361C23.3308 7.68446 23.3416 10.5755 23.3308 13.4665C24.02 13.4665 24.7092 13.4665 25.3985 13.4665C25.3877 10.5755 25.3985 7.68446 25.4308 4.79361C25.6121 4.34139 25.9459 4.12565 26.4323 4.14638C26.9187 4.12565 27.2525 4.34139 27.4338 4.79361C27.4662 7.68446 27.4769 10.5755 27.4662 13.4665C28.1554 13.4665 28.8446 13.4665 29.5338 13.4665C29.5231 10.5755 29.5338 7.68446 29.5662 4.79361C29.6846 4.50235 29.8892 4.2974 30.18 4.17874C31.4723 4.13559 32.7646 4.13559 34.0569 4.17874C34.3477 4.2974 34.5523 4.50235 34.6708 4.79361C34.7031 7.68446 34.7139 10.5755 34.7031 13.4665C35.3923 13.4665 36.0815 13.4665 36.7708 13.4665C36.76 10.5755 36.7708 7.68446 36.8031 4.79361C36.9844 4.34139 37.3183 4.12565 37.8046 4.14638C38.291 4.12565 38.6248 4.34139 38.8061 4.79361C38.8385 7.68446 38.8492 10.5755 38.8385 13.4665C40.0017 13.4557 41.1648 13.4665 42.3277 13.4989C42.9081 13.7884 43.1127 14.2522 42.9415 14.8904C42.8231 15.1817 42.6185 15.3866 42.3277 15.5053C33.1092 15.5484 23.8908 15.5484 14.6723 15.5053C14.0919 15.2158 13.8873 14.7519 14.0585 14.1137C14.1769 13.8225 14.3815 13.6175 14.6723 13.4989C15.8352 13.4665 16.9983 13.4557 18.1615 13.4665C18.1508 10.5755 18.1615 7.68446 18.1939 4.79361C18.3245 4.50106 18.5291 4.28532 18.8077 4.14638Z" fill="white"/>
<path opacity="0.994" fill-rule="evenodd" clip-rule="evenodd" d="M18.8078 17.6088C20.1003 17.598 21.3926 17.6088 22.6847 17.6412C22.9755 17.7598 23.1801 17.9648 23.2985 18.256C23.3416 20.2409 23.3416 22.2257 23.2985 24.2105C23.1801 24.5018 22.9755 24.7068 22.6847 24.8254C21.3924 24.8686 20.1001 24.8686 18.8078 24.8254C18.517 24.7068 18.3124 24.5018 18.1939 24.2105C18.1509 22.2257 18.1509 20.2409 18.1939 18.256C18.3246 17.9635 18.5292 17.7478 18.8078 17.6088Z" fill="white"/>
<path opacity="0.984" fill-rule="evenodd" clip-rule="evenodd" d="M26.0446 17.6088C26.6817 17.4696 27.1448 17.6854 27.4338 18.256C27.4769 20.2409 27.4769 22.2257 27.4338 24.2105C27.2525 24.6628 26.9187 24.8785 26.4323 24.8578C25.9459 24.8785 25.6121 24.6628 25.4308 24.2105C25.3877 22.2257 25.3877 20.2409 25.4308 18.256C25.5614 17.9635 25.7661 17.7478 26.0446 17.6088Z" fill="white"/>
<path opacity="0.994" fill-rule="evenodd" clip-rule="evenodd" d="M30.1801 17.6088C31.4726 17.598 32.7649 17.6088 34.057 17.6412C34.3478 17.7598 34.5524 17.9648 34.6709 18.256C34.714 20.2409 34.714 22.2257 34.6709 24.2105C34.5524 24.5018 34.3478 24.7068 34.057 24.8254C32.7647 24.8686 31.4724 24.8686 30.1801 24.8254C29.8893 24.7068 29.6847 24.5018 29.5663 24.2105C29.5232 22.2257 29.5232 20.2409 29.5663 18.256C29.6969 17.9635 29.9015 17.7478 30.1801 17.6088Z" fill="white"/>
<path opacity="0.984" fill-rule="evenodd" clip-rule="evenodd" d="M37.4169 17.6088C38.054 17.4696 38.5171 17.6854 38.8062 18.256C38.8492 20.2409 38.8492 22.2257 38.8062 24.2105C38.6248 24.6628 38.291 24.8785 37.8046 24.8578C37.3183 24.8785 36.9845 24.6628 36.8031 24.2105C36.76 22.2257 36.76 20.2409 36.8031 18.256C36.9337 17.9635 37.1384 17.7478 37.4169 17.6088Z" fill="white"/>
<path opacity="0.986" fill-rule="evenodd" clip-rule="evenodd" d="M14.6723 22.7865C15.3094 22.6474 15.7725 22.8631 16.0615 23.4338C16.0938 24.5986 16.1046 25.7636 16.0938 26.9288C17.2571 26.918 18.4202 26.9288 19.583 26.9612C20.1634 27.2507 20.3681 27.7145 20.1969 28.3527C20.0784 28.644 19.8738 28.8489 19.583 28.9676C17.9461 29.0108 16.3092 29.0108 14.6723 28.9676C14.3815 28.8489 14.1769 28.644 14.0584 28.3527C14.0154 26.7131 14.0154 25.0734 14.0584 23.4338C14.1891 23.1412 14.3937 22.9255 14.6723 22.7865Z" fill="white"/>
<path opacity="0.986" fill-rule="evenodd" clip-rule="evenodd" d="M41.5523 22.7865C42.1894 22.6474 42.6525 22.8631 42.9416 23.4338C42.9847 25.0734 42.9847 26.7131 42.9416 28.3527C42.8231 28.644 42.6185 28.8489 42.3277 28.9676C40.6908 29.0108 39.0538 29.0108 37.4169 28.9676C36.8366 28.6781 36.6319 28.2142 36.8031 27.576C36.9215 27.2848 37.1262 27.0798 37.4169 26.9612C38.5798 26.9288 39.7429 26.918 40.9062 26.9288C40.8954 25.7636 40.9062 24.5986 40.9385 23.4338C41.0691 23.1412 41.2738 22.9255 41.5523 22.7865Z" fill="white"/>
<defs>
<linearGradient id="paint0_linear_402_897" x1="28" y1="3" x2="28" y2="40" gradientUnits="userSpaceOnUse">
<stop stop-color="#D8AD41" stop-opacity="0"/>
<stop offset="1" stop-color="#D8AD41"/>
</linearGradient>
</defs>
</svg>
