<svg width="56" height="44" viewBox="0 0 56 44" fill="none" xmlns="http://www.w3.org/2000/svg">
<rect x="1" y="5" width="54" height="37" fill="url(#paint0_linear_402_896)" fill-opacity="0.2"/>
<rect y="42" width="56" height="2" rx="1" fill="#E1BF6B"/>
<path opacity="0.96" fill-rule="evenodd" clip-rule="evenodd" d="M9 0.00404642C10.5329 -0.00674506 12.0656 0.00404837 13.5982 0.036428C13.7728 0.081101 13.9131 0.178246 14.0191 0.327862C14.6397 2.54027 15.2549 4.75301 15.8649 6.96608C24.4568 6.98765 33.0487 7.00928 41.6406 7.03085C41.8633 7.11355 42.036 7.25383 42.1587 7.45181C42.1587 7.68929 42.1587 7.92671 42.1587 8.1642C41.0069 12.339 39.8736 16.527 38.7587 20.7282C38.2889 22.1046 37.3282 22.8494 35.8767 22.9626C30.8467 23.0058 25.8168 23.0058 20.7869 22.9626C20.5974 22.9485 20.4139 22.9161 20.2364 22.8654C20.3501 23.4989 20.512 24.1249 20.7221 24.7436C25.9246 24.7975 31.1273 24.8299 36.33 24.8407C37.5105 25.0584 38.3848 25.6953 38.953 26.7512C39.7441 28.7589 39.2584 30.3672 37.4958 31.5761C35.6146 32.4004 34.0279 32.0226 32.7357 30.4427C31.9052 29.082 31.916 27.7328 32.7681 26.395C29.7887 26.3411 26.8096 26.3518 23.8308 26.4274C24.5964 27.7345 24.6072 29.0513 23.8631 30.378C22.7407 31.8652 21.2836 32.3293 19.4916 31.7704C17.4804 30.7248 16.822 29.1166 17.5164 26.9455C17.8769 26.2073 18.4057 25.6245 19.103 25.1969C16.9161 17.3555 14.7896 9.49761 12.7239 1.62312C11.4875 1.55883 10.2462 1.53724 9 1.55836C9 1.04026 9 0.522152 9 0.00404642ZM16.2535 8.61754C24.2625 8.61754 32.2715 8.61754 40.2806 8.61754C39.2643 12.5749 38.2172 16.5254 37.1396 20.4692C36.9181 21.0066 36.5188 21.3196 35.9415 21.4083C30.8684 21.4515 25.7952 21.4515 20.7221 21.4083C19.9797 21.2703 19.5372 20.8277 19.3945 20.0806C18.3573 16.2556 17.3103 12.4346 16.2535 8.61754ZM20.7869 26.3626C22.0151 26.5115 22.7059 27.2022 22.8593 28.4351C22.6053 29.9097 21.7418 30.5466 20.2688 30.3456C18.9744 29.7969 18.5534 28.8578 19.0059 27.5284C19.4069 26.8373 20.0005 26.4487 20.7869 26.3626ZM35.2938 26.4274C36.9441 26.34 37.7536 27.1171 37.7225 28.7589C37.4714 29.7966 36.813 30.3579 35.7472 30.4427C34.3112 30.2478 33.6527 29.4276 33.7719 27.9817C33.9894 27.1707 34.4967 26.6526 35.2938 26.4274Z" fill="#E7E9EE"/>
<defs>
<linearGradient id="paint0_linear_402_896" x1="28" y1="5" x2="28" y2="42" gradientUnits="userSpaceOnUse">
<stop stop-color="#D8AD41" stop-opacity="0"/>
<stop offset="1" stop-color="#D8AD41"/>
</linearGradient>
</defs>
</svg>
