<svg width="56" height="44" viewBox="0 0 56 44" fill="none" xmlns="http://www.w3.org/2000/svg">
<g clip-path="url(#clip0_402_911)">
<path opacity="0.967" fill-rule="evenodd" clip-rule="evenodd" d="M11.9688 6.59375C11.9688 6.23958 11.9688 5.88542 11.9688 5.53125C12.3983 4.33649 13.2525 3.80524 14.5312 3.9375C15.9226 4.35447 16.4746 5.28155 16.1875 6.71875C15.7198 7.8925 14.8552 8.38206 13.5938 8.1875C12.7698 7.93643 12.2282 7.40518 11.9688 6.59375Z" fill="white"/>
<path opacity="0.98" fill-rule="evenodd" clip-rule="evenodd" d="M43.9687 5.46875C43.9687 5.78125 43.9687 6.09375 43.9687 6.40625C43.7513 7.06844 43.2929 7.45388 42.5937 7.5625C35.3229 7.60419 28.052 7.60419 20.7812 7.5625C19.6445 7.27881 19.1965 6.56006 19.4375 5.40625C19.619 4.87065 19.9835 4.5269 20.5312 4.375C27.9479 4.33333 35.3645 4.33333 42.7812 4.375C43.349 4.55747 43.7448 4.92205 43.9687 5.46875Z" fill="white"/>
<path opacity="0.966" fill-rule="evenodd" clip-rule="evenodd" d="M11.9688 16.4687C11.9688 16.1354 11.9688 15.802 11.9688 15.4687C12.3494 14.2981 13.1619 13.746 14.4062 13.8125C15.8934 14.1963 16.4871 15.1442 16.1875 16.6562C15.676 17.8235 14.7905 18.2923 13.5312 18.0625C12.7022 17.8273 12.1814 17.296 11.9688 16.4687Z" fill="white"/>
<path opacity="0.979" fill-rule="evenodd" clip-rule="evenodd" d="M43.9687 15.5313C43.9687 15.823 43.9687 16.1146 43.9687 16.4063C43.765 17.016 43.3484 17.4014 42.7187 17.5625C35.3645 17.6042 28.0104 17.6042 20.6562 17.5625C19.5935 17.2186 19.1873 16.4999 19.4375 15.4063C19.6727 14.8585 20.0789 14.5147 20.6562 14.375C28.0104 14.3333 35.3645 14.3333 42.7187 14.375C43.3484 14.5361 43.765 14.9215 43.9687 15.5313Z" fill="white"/>
<path opacity="0.968" fill-rule="evenodd" clip-rule="evenodd" d="M11.9688 26.4063C11.9688 26.0521 11.9688 25.698 11.9688 25.3438C12.5672 23.8575 13.6297 23.3888 15.1562 23.9375C16.174 24.6155 16.4969 25.5426 16.125 26.7188C15.6147 27.7293 14.7918 28.1563 13.6562 28C12.7958 27.7748 12.2333 27.2435 11.9688 26.4063Z" fill="white"/>
<path opacity="0.98" fill-rule="evenodd" clip-rule="evenodd" d="M43.9687 25.5313C43.9687 25.8438 43.9687 26.1563 43.9687 26.4688C43.7447 27.0155 43.3489 27.38 42.7812 27.5625C35.3645 27.6042 27.9479 27.6042 20.5312 27.5625C19.4773 27.132 19.1335 26.3716 19.4999 25.2813C19.7688 24.7561 20.1959 24.4541 20.7812 24.375C28.052 24.3333 35.3229 24.3333 42.5937 24.375C43.2929 24.4836 43.7512 24.8691 43.9687 25.5313Z" fill="white"/>
</g>
<path d="M1 5H55V42H1V5Z" fill="url(#paint0_linear_402_911)" fill-opacity="0.2"/>
<rect y="42" width="56" height="2" rx="1" fill="#E1BF6B"/>
<defs>
<linearGradient id="paint0_linear_402_911" x1="28" y1="5" x2="28" y2="42" gradientUnits="userSpaceOnUse">
<stop stop-color="#D8AD41" stop-opacity="0"/>
<stop offset="1" stop-color="#D8AD41"/>
</linearGradient>
<clipPath id="clip0_402_911">
<rect width="32" height="32" fill="white" transform="translate(12)"/>
</clipPath>
</defs>
</svg>
