<svg width="29" height="29" viewBox="0 0 29 29" fill="none" xmlns="http://www.w3.org/2000/svg">
<path opacity="0.986" fill-rule="evenodd" clip-rule="evenodd" d="M0.672278 0.00404337C2.30934 -0.00673949 3.94627 0.00404337 5.58304 0.0364049C6.16342 0.325918 6.36806 0.789762 6.19689 1.42795C6.07845 1.71921 5.87381 1.92416 5.58304 2.04282C4.42017 2.07518 3.25709 2.08596 2.09382 2.07518C2.10458 3.2404 2.09381 4.40541 2.06151 5.57023C1.77248 6.15157 1.3094 6.35655 0.672278 6.1851C0.381509 6.06646 0.176892 5.86148 0.0584323 5.57023C0.0153533 3.93058 0.0153533 2.29092 0.0584323 0.651274C0.189104 0.358726 0.393721 0.142984 0.672278 0.00404337Z" fill="#576075"/>
<path opacity="0.986" fill-rule="evenodd" clip-rule="evenodd" d="M23.4169 0.00404337C25.054 -0.00673949 26.6909 0.00404337 28.3277 0.0364049C28.6185 0.155062 28.8231 0.36002 28.9416 0.651274C28.9847 2.29092 28.9847 3.93058 28.9416 5.57023C28.6525 6.15157 28.1894 6.35655 27.5523 6.1851C27.2616 6.06646 27.0569 5.86148 26.9385 5.57023C26.9062 4.40541 26.8954 3.2404 26.9062 2.07518C25.7429 2.08596 24.5798 2.07518 23.4169 2.04282C22.8366 1.75331 22.6319 1.28946 22.8031 0.651274C22.9338 0.358726 23.1384 0.142984 23.4169 0.00404337Z" fill="#576075"/>
<path opacity="0.996" fill-rule="evenodd" clip-rule="evenodd" d="M4.8077 4.14638C6.1002 4.13559 7.39251 4.14638 8.68462 4.17874C8.97539 4.2974 9.18002 4.50235 9.29846 4.79361C9.33077 7.68446 9.34156 10.5755 9.33077 13.4665C10.02 13.4665 10.7092 13.4665 11.3985 13.4665C11.3877 10.5755 11.3985 7.68446 11.4308 4.79361C11.6121 4.34139 11.9459 4.12565 12.4323 4.14638C12.9187 4.12565 13.2525 4.34139 13.4338 4.79361C13.4662 7.68446 13.4769 10.5755 13.4662 13.4665C14.1554 13.4665 14.8446 13.4665 15.5338 13.4665C15.5231 10.5755 15.5338 7.68446 15.5662 4.79361C15.6846 4.50235 15.8892 4.2974 16.18 4.17874C17.4723 4.13559 18.7646 4.13559 20.0569 4.17874C20.3477 4.2974 20.5523 4.50235 20.6708 4.79361C20.7031 7.68446 20.7139 10.5755 20.7031 13.4665C21.3923 13.4665 22.0815 13.4665 22.7708 13.4665C22.76 10.5755 22.7708 7.68446 22.8031 4.79361C22.9844 4.34139 23.3183 4.12565 23.8046 4.14638C24.291 4.12565 24.6248 4.34139 24.8061 4.79361C24.8385 7.68446 24.8492 10.5755 24.8385 13.4665C26.0017 13.4557 27.1648 13.4665 28.3277 13.4989C28.9081 13.7884 29.1127 14.2522 28.9415 14.8904C28.8231 15.1817 28.6185 15.3866 28.3277 15.5053C19.1092 15.5484 9.89079 15.5484 0.672316 15.5053C0.091928 15.2158 -0.112689 14.7519 0.0584701 14.1137C0.176929 13.8225 0.381547 13.6175 0.672316 13.4989C1.83519 13.4665 2.99827 13.4557 4.16154 13.4665C4.15077 10.5755 4.16154 7.68446 4.19385 4.79361C4.32452 4.50106 4.52914 4.28532 4.8077 4.14638Z" fill="#576075"/>
<path opacity="0.994" fill-rule="evenodd" clip-rule="evenodd" d="M4.80778 17.6088C6.10028 17.598 7.39258 17.6088 8.6847 17.6412C8.97547 17.7598 9.1801 17.9648 9.29854 18.256C9.34164 20.2409 9.34164 22.2257 9.29854 24.2105C9.1801 24.5018 8.97547 24.7068 8.6847 24.8254C7.39239 24.8686 6.10008 24.8686 4.80778 24.8254C4.51701 24.7068 4.31239 24.5018 4.19393 24.2105C4.15085 22.2257 4.15085 20.2409 4.19393 18.256C4.3246 17.9635 4.52922 17.7478 4.80778 17.6088Z" fill="#576075"/>
<path opacity="0.984" fill-rule="evenodd" clip-rule="evenodd" d="M12.0446 17.6088C12.6817 17.4696 13.1448 17.6854 13.4338 18.256C13.4769 20.2409 13.4769 22.2257 13.4338 24.2105C13.2525 24.6628 12.9187 24.8785 12.4323 24.8578C11.9459 24.8785 11.6121 24.6628 11.4308 24.2105C11.3877 22.2257 11.3877 20.2409 11.4308 18.256C11.5614 17.9635 11.7661 17.7478 12.0446 17.6088Z" fill="#576075"/>
<path opacity="0.994" fill-rule="evenodd" clip-rule="evenodd" d="M16.1801 17.6088C17.4726 17.598 18.7649 17.6088 20.057 17.6412C20.3478 17.7598 20.5524 17.9648 20.6709 18.256C20.714 20.2409 20.714 22.2257 20.6709 24.2105C20.5524 24.5018 20.3478 24.7068 20.057 24.8254C18.7647 24.8686 17.4724 24.8686 16.1801 24.8254C15.8893 24.7068 15.6847 24.5018 15.5663 24.2105C15.5232 22.2257 15.5232 20.2409 15.5663 18.256C15.6969 17.9635 15.9015 17.7478 16.1801 17.6088Z" fill="#576075"/>
<path opacity="0.984" fill-rule="evenodd" clip-rule="evenodd" d="M23.4169 17.6088C24.054 17.4696 24.5171 17.6854 24.8062 18.256C24.8492 20.2409 24.8492 22.2257 24.8062 24.2105C24.6248 24.6628 24.291 24.8785 23.8046 24.8578C23.3183 24.8785 22.9845 24.6628 22.8031 24.2105C22.76 22.2257 22.76 20.2409 22.8031 18.256C22.9337 17.9635 23.1384 17.7478 23.4169 17.6088Z" fill="#576075"/>
<path opacity="0.986" fill-rule="evenodd" clip-rule="evenodd" d="M0.672278 22.7865C1.30939 22.6474 1.77246 22.8631 2.06151 23.4338C2.09381 24.5986 2.10458 25.7636 2.09382 26.9288C3.25709 26.918 4.42017 26.9288 5.58304 26.9612C6.16342 27.2507 6.36806 27.7145 6.19689 28.3527C6.07845 28.644 5.87381 28.8489 5.58304 28.9676C3.94612 29.0108 2.3092 29.0108 0.672278 28.9676C0.381509 28.8489 0.176892 28.644 0.0584323 28.3527C0.0153533 26.7131 0.0153533 25.0734 0.0584323 23.4338C0.189104 23.1412 0.393721 22.9255 0.672278 22.7865Z" fill="#576075"/>
<path opacity="0.986" fill-rule="evenodd" clip-rule="evenodd" d="M27.5523 22.7865C28.1894 22.6474 28.6525 22.8631 28.9416 23.4338C28.9847 25.0734 28.9847 26.7131 28.9416 28.3527C28.8231 28.644 28.6185 28.8489 28.3277 28.9676C26.6908 29.0108 25.0538 29.0108 23.4169 28.9676C22.8366 28.6781 22.6319 28.2142 22.8031 27.576C22.9215 27.2848 23.1262 27.0798 23.4169 26.9612C24.5798 26.9288 25.7429 26.918 26.9062 26.9288C26.8954 25.7636 26.9062 24.5986 26.9385 23.4338C27.0691 23.1412 27.2738 22.9255 27.5523 22.7865Z" fill="#576075"/>
</svg>
