<svg width="32" height="32" viewBox="0 0 32 32" fill="none" xmlns="http://www.w3.org/2000/svg">
<g clip-path="url(#clip0_402_883)">
<path opacity="0.967" fill-rule="evenodd" clip-rule="evenodd" d="M-0.03125 6.59375C-0.03125 6.23958 -0.03125 5.88542 -0.03125 5.53125C0.398292 4.33649 1.25246 3.80524 2.53125 3.9375C3.92256 4.35447 4.47464 5.28155 4.1875 6.71875C3.71976 7.8925 2.85518 8.38206 1.59375 8.1875C0.769844 7.93643 0.228177 7.40518 -0.03125 6.59375Z" fill="#576075"/>
<path opacity="0.98" fill-rule="evenodd" clip-rule="evenodd" d="M31.9687 5.46875C31.9687 5.78125 31.9687 6.09375 31.9687 6.40625C31.7513 7.06844 31.2929 7.45388 30.5937 7.5625C23.3229 7.60419 16.052 7.60419 8.78122 7.5625C7.64447 7.27881 7.19653 6.56006 7.43747 5.40625C7.61897 4.87065 7.98353 4.5269 8.53122 4.375C15.9479 4.33333 23.3645 4.33333 30.7812 4.375C31.349 4.55747 31.7448 4.92205 31.9687 5.46875Z" fill="#576075"/>
<path opacity="0.966" fill-rule="evenodd" clip-rule="evenodd" d="M-0.03125 16.4687C-0.03125 16.1354 -0.03125 15.802 -0.03125 15.4687C0.349421 14.2981 1.16192 13.746 2.40625 13.8125C3.89336 14.1963 4.48711 15.1442 4.1875 16.6562C3.67596 17.8235 2.79054 18.2923 1.53125 18.0625C0.702231 17.8273 0.181401 17.296 -0.03125 16.4687Z" fill="#576075"/>
<path opacity="0.979" fill-rule="evenodd" clip-rule="evenodd" d="M31.9687 15.5313C31.9687 15.823 31.9687 16.1146 31.9687 16.4063C31.765 17.016 31.3484 17.4014 30.7187 17.5625C23.3645 17.6042 16.0104 17.6042 8.65623 17.5625C7.59354 17.2186 7.18729 16.4999 7.43748 15.4063C7.67267 14.8585 8.07892 14.5147 8.65623 14.375C16.0104 14.3333 23.3645 14.3333 30.7187 14.375C31.3484 14.5361 31.765 14.9215 31.9687 15.5313Z" fill="#576075"/>
<path opacity="0.968" fill-rule="evenodd" clip-rule="evenodd" d="M-0.03125 26.4063C-0.03125 26.0521 -0.03125 25.698 -0.03125 25.3438C0.567228 23.8575 1.62972 23.3888 3.15625 23.9375C4.17398 24.6155 4.4969 25.5426 4.125 26.7188C3.61472 27.7293 2.79181 28.1563 1.65625 28C0.795831 27.7748 0.233329 27.2435 -0.03125 26.4063Z" fill="#576075"/>
<path opacity="0.98" fill-rule="evenodd" clip-rule="evenodd" d="M31.9687 25.5313C31.9687 25.8438 31.9687 26.1563 31.9687 26.4688C31.7447 27.0155 31.3489 27.38 30.7812 27.5625C23.3645 27.6042 15.9479 27.6042 8.53117 27.5625C7.4773 27.132 7.13355 26.3716 7.49992 25.2813C7.7688 24.7561 8.19586 24.4541 8.78117 24.375C16.052 24.3333 23.3229 24.3333 30.5937 24.375C31.2929 24.4836 31.7512 24.8691 31.9687 25.5313Z" fill="#576075"/>
</g>
<defs>
<clipPath id="clip0_402_883">
<rect width="32" height="32" fill="white"/>
</clipPath>
</defs>
</svg>
