<svg width="34" height="32" viewBox="0 0 34 32" fill="none" xmlns="http://www.w3.org/2000/svg">
<path opacity="0.96" fill-rule="evenodd" clip-rule="evenodd" d="M0 0.00404642C1.53288 -0.00674506 3.06561 0.00404837 4.59818 0.036428C4.77278 0.081101 4.9131 0.178246 5.01914 0.327862C5.63968 2.54027 6.25493 4.75301 6.86489 6.96608C15.4568 6.98765 24.0487 7.00928 32.6406 7.03085C32.8633 7.11355 33.036 7.25383 33.1587 7.45181C33.1587 7.68929 33.1587 7.92671 33.1587 8.1642C32.0069 12.339 30.8736 16.527 29.7587 20.7282C29.2889 22.1046 28.3282 22.8494 26.8767 22.9626C21.8467 23.0058 16.8168 23.0058 11.7869 22.9626C11.5974 22.9485 11.4139 22.9161 11.2364 22.8654C11.3501 23.4989 11.512 24.1249 11.7221 24.7436C16.9246 24.7975 22.1273 24.8299 27.33 24.8407C28.5105 25.0584 29.3848 25.6953 29.953 26.7512C30.7441 28.7589 30.2584 30.3672 28.4958 31.5761C26.6146 32.4004 25.0279 32.0226 23.7357 30.4427C22.9052 29.082 22.916 27.7328 23.7681 26.395C20.7887 26.3411 17.8096 26.3518 14.8308 26.4274C15.5964 27.7345 15.6072 29.0513 14.8631 30.378C13.7407 31.8652 12.2836 32.3293 10.4916 31.7704C8.48041 30.7248 7.82203 29.1166 8.51635 26.9455C8.87689 26.2073 9.40574 25.6245 10.103 25.1969C7.91606 17.3555 5.78964 9.49761 3.72388 1.62312C2.48753 1.55883 1.24623 1.53724 0 1.55836C0 1.04026 0 0.522152 0 0.00404642ZM7.25347 8.61754C15.2625 8.61754 23.2715 8.61754 31.2806 8.61754C30.2643 12.5749 29.2172 16.5254 28.1396 20.4692C27.9181 21.0066 27.5188 21.3196 26.9415 21.4083C21.8684 21.4515 16.7952 21.4515 11.7221 21.4083C10.9797 21.2703 10.5372 20.8277 10.3945 20.0806C9.3573 16.2556 8.31028 12.4346 7.25347 8.61754ZM11.7869 26.3626C13.0151 26.5115 13.7059 27.2022 13.8593 28.4351C13.6053 29.9097 12.7418 30.5466 11.2688 30.3456C9.97437 29.7969 9.5534 28.8578 10.0059 27.5284C10.4069 26.8373 11.0005 26.4487 11.7869 26.3626ZM26.2938 26.4274C27.9441 26.34 28.7536 27.1171 28.7225 28.7589C28.4714 29.7966 27.813 30.3579 26.7472 30.4427C25.3112 30.2478 24.6527 29.4276 24.7719 27.9817C24.9894 27.1707 25.4967 26.6526 26.2938 26.4274Z" fill="#576075"/>
</svg>
