<svg width="250" height="57" viewBox="0 0 250 57" fill="none" xmlns="http://www.w3.org/2000/svg">
<path fill-rule="evenodd" clip-rule="evenodd" d="M20.8719 0.096484C21.3106 -0.08766 21.7354 -0.00821856 22.1467 0.334807C28.879 6.96812 35.5183 13.6677 42.0644 20.4334C42.2763 20.9005 42.2497 21.3771 41.9847 21.8633C35.3881 33.0498 28.8551 44.2774 22.3857 55.5462C22.2058 55.8069 21.9668 55.9658 21.6686 56.0229H20.5532C20.3115 56.0211 20.1256 55.9153 19.9955 55.7051L0.07783 21.3866C-0.0478906 21.0352 -0.0212794 20.7174 0.157502 20.4334C6.91072 13.5406 13.7624 6.76157 20.7126 0.096484H20.8719ZM21.0313 2.79747C27.1791 8.68913 33.2607 14.6737 39.2759 20.7511C39.3822 20.8571 39.3822 20.9629 39.2759 21.0689L21.1109 39.1814L2.94598 21.0689C2.8397 20.9629 2.8397 20.8571 2.94598 20.7511C4.43853 19.3423 5.89906 17.9124 7.32788 16.4613C11.9488 11.9597 16.5166 7.40505 21.0313 2.79747ZM114.405 34.7327C115.052 34.6812 115.689 34.7341 116.318 34.8916C116.494 35.1639 116.388 35.2699 115.999 35.2094H108.829H108.351V34.7327H110.422V13.7603H108.351V13.1248H114.405V34.7327ZM55.9271 15.1903C55.9094 15.0922 55.8563 15.0128 55.7677 14.9519C53.3783 14.8725 50.9881 14.846 48.5974 14.8725V15.508H51.3062C51.3328 21.4928 51.3062 27.4774 51.2265 33.4617C51.1352 33.8018 51.0025 34.1196 50.8281 34.4149C50.2096 34.622 49.5722 34.7279 48.916 34.7327C48.4911 34.8916 48.4911 35.0505 48.916 35.2094H54.6523C54.899 35.1584 55.0053 34.9995 54.971 34.7327H53.537C53.0122 34.5881 52.6139 34.2704 52.3419 33.7794C52.2356 28.4303 52.2356 23.0814 52.3419 17.7324C52.804 18.9856 53.3085 20.2038 53.8556 21.3866C55.4052 25.5711 56.972 29.7549 58.5562 33.9383C58.6932 34.4361 58.9323 34.8598 59.2733 35.2094H60.2293C60.6468 34.5988 60.9124 33.9103 61.026 33.1439C62.7636 28.5826 64.4101 23.975 65.9656 19.3212C66.2782 18.7865 66.5173 18.2039 66.6826 17.5735C66.7623 23.2929 66.7889 29.0127 66.7623 34.7327H64.0535C64.0192 34.9995 64.1255 35.1584 64.3722 35.2094H73.136H73.614V34.7327H70.9052V15.508H73.614V14.8725H66.9217C66.6374 15.0431 66.4514 15.3078 66.364 15.6669C64.9606 19.5738 63.6062 23.4928 62.3007 27.4242C61.9349 28.1183 61.6428 28.8598 61.4244 29.6485C59.544 24.8439 57.7115 20.0244 55.9271 15.1903ZM149.461 18.6857C149.778 17.4441 150.176 16.226 150.656 15.0314C150.762 14.9119 150.895 14.8588 151.054 14.8725H157.587V15.508H155.038V34.7327H157.587C157.621 34.9995 157.515 35.1584 157.268 35.2094H148.345C148.098 35.1584 147.993 34.9995 148.027 34.7327H150.735C150.788 29.0389 150.735 23.372 150.576 17.7324C149.551 20.9032 148.436 24.0279 147.23 27.1064C146.79 28.6355 146.258 30.1183 145.636 31.5551C145.364 32.8865 144.886 34.1047 144.202 35.2094H143.406C143.112 35.1105 142.928 34.8986 142.848 34.5738C141.264 30.3905 139.696 26.2066 138.147 22.0222C137.79 21.3812 137.526 20.6926 137.351 19.9567C136.963 19.1443 136.618 18.297 136.315 17.4146C136.208 22.7637 136.208 28.1126 136.315 33.4617C136.412 33.7244 136.492 33.9893 136.554 34.2561C136.928 34.4402 137.301 34.5991 137.669 34.7327H139.103V35.2094H138.625H132.889C132.464 35.0505 132.464 34.8916 132.889 34.7327H134.005C134.835 34.5386 135.26 34.009 135.279 33.1439V15.508H132.73V14.8725C135.148 14.8202 137.539 14.8731 139.9 15.0314C141.685 19.8655 143.517 24.685 145.397 29.4896C146.739 25.8717 148.093 22.2705 149.461 18.6857ZM219.491 21.0689C219.41 21.8706 219.012 22.1884 218.296 22.0222C217.979 21.7579 217.606 21.5725 217.181 21.4661C215.533 20.9856 213.887 20.9591 212.241 21.3866C211.915 21.3711 211.649 21.477 211.445 21.7044C211.032 21.6982 210.713 21.8571 210.488 22.1811C209.974 22.4543 209.523 22.825 209.134 23.2932C208.396 24.6024 208.237 25.9794 208.656 27.4242C208.858 28.1255 209.257 28.655 209.851 29.013C209.48 29.516 209.027 29.9397 208.497 30.284C207.598 31.4906 207.386 32.8145 207.859 34.2561C208.137 34.7707 208.535 35.1415 209.054 35.3682C209.215 35.5548 209.429 35.6606 209.692 35.686C210.218 36.0011 210.802 36.1599 211.445 36.1627C213.696 36.5154 215.979 36.7802 218.296 36.9571C218.524 37.1218 218.79 37.2278 219.093 37.2748C219.316 37.4957 219.582 37.6545 219.89 37.7515C220.196 38.3454 220.275 38.9809 220.129 39.658C219.81 40.1078 219.464 40.5314 219.093 40.9291C218.83 40.9545 218.617 41.0603 218.456 41.2469C217.952 41.3789 217.474 41.5378 217.021 41.7235C215.752 41.8543 214.477 41.9072 213.197 41.8824C212.565 41.7073 211.927 41.4955 211.285 41.2469C210.296 40.1158 210.243 38.9507 211.126 37.7515L212.082 37.7515V37.2748H211.604C210.882 37.2243 210.191 37.2772 209.532 37.4337C209.233 37.3906 209.021 37.4966 208.895 37.7515C208.428 37.9248 208.084 38.2426 207.859 38.7048C207.622 40.0325 208.127 40.9329 209.373 41.4058C209.499 41.6606 209.711 41.7666 210.01 41.7235C210.283 41.9202 210.602 42.0262 210.967 42.0413C212.213 42.3619 213.487 42.5208 214.791 42.5179C216.078 42.5602 217.299 42.3484 218.456 41.8824C219.08 41.7828 219.611 41.5181 220.049 41.088C220.156 41.088 220.208 41.0351 220.208 40.9291C220.506 40.8721 220.745 40.7132 220.925 40.4525C221.505 39.6185 221.797 38.6917 221.802 37.672C221.915 36.2807 221.383 35.248 220.208 34.5738C219.399 34.0305 218.495 33.6862 217.5 33.5411C215.162 33.2952 212.824 33.0568 210.488 32.8261C209.117 31.991 209.01 30.9849 210.17 29.8074C210.471 29.6676 210.79 29.6676 211.126 29.8074C212.165 30.3005 213.28 30.5123 214.472 30.4429C215.788 30.5196 217.01 30.2549 218.137 29.6485C218.363 29.6153 218.577 29.5358 218.774 29.4102C220.635 27.8236 221.059 25.9434 220.049 23.7699C219.98 23.3417 219.767 22.9974 219.412 22.7371C219.662 22.6405 219.874 22.508 220.049 22.3399C220.207 22.3673 220.314 22.3142 220.368 22.1811C220.611 22.1926 220.771 22.0867 220.846 21.8633C221.254 21.6976 221.598 21.4327 221.881 21.0689C222.264 20.0504 221.972 19.3089 221.005 18.8445C220.522 18.6032 219.992 18.4974 219.412 18.5268C219.008 18.5273 218.637 18.5803 218.296 18.6857C217.871 18.7916 217.871 18.8974 218.296 19.0034C218.467 19.1518 218.679 19.2049 218.934 19.1623C219.506 19.6699 219.69 20.3055 219.491 21.0689ZM80.3064 21.3866C82.142 20.93 83.9478 21.036 85.724 21.7044C86.325 21.7654 86.803 22.0301 87.1581 22.4988C88.1415 23.1393 88.8055 24.0396 89.1498 25.1998C89.7212 27.3366 89.668 29.455 88.9905 31.5551C88.8936 31.8039 88.7607 32.0158 88.5921 32.1906C88.0338 33.5948 87.0247 34.4952 85.5646 34.8916C85.3094 35.1417 84.9907 35.2477 84.6086 35.2094C83.3643 35.5513 82.0896 35.6043 80.7844 35.3682C80.3072 35.401 79.8822 35.2952 79.5097 35.0505C78.885 34.9509 78.354 34.6862 77.9162 34.2561C76.5005 33.3943 75.6772 32.1232 75.4464 30.4429C74.9729 27.9756 75.3446 25.6455 76.5618 23.4521C77.0125 22.8682 77.5702 22.4445 78.2349 22.1811C78.4598 21.8571 78.7784 21.6982 79.191 21.7044C79.512 21.4782 79.8838 21.3723 80.3064 21.3866ZM83.1745 21.7044C84.2976 22.2421 84.9614 23.1424 85.1663 24.4054C85.3879 26.6757 85.4676 28.9529 85.4053 31.2373C85.299 31.2373 85.246 31.2902 85.246 31.3962C85.2652 32.9485 84.6279 34.1136 83.3339 34.8916C82.5827 34.915 81.8391 34.862 81.1031 34.7327C80.9539 34.4985 80.7414 34.3396 80.4657 34.2561C80.0027 33.5336 79.7104 32.7392 79.5893 31.8728C79.1956 29.0957 79.3019 26.3417 79.908 23.611C80.136 22.9955 80.4812 22.4659 80.9437 22.0222C81.6619 21.7659 82.4054 21.6601 83.1745 21.7044ZM126.993 21.7044C128.62 22.2724 129.47 23.4375 129.543 25.1998C129.516 28.219 129.543 31.2378 129.623 34.2561C129.737 34.3425 129.817 34.4485 129.862 34.5738H130.34C130.947 34.0285 131.213 33.34 131.136 32.5084H132.092C132.118 33.2523 131.932 33.9407 131.535 34.5738C131.355 34.8346 131.116 34.9934 130.818 35.0505C130.555 35.2772 130.236 35.4095 129.862 35.4477C129.3 35.5761 128.769 35.5495 128.268 35.3682C127.886 35.4065 127.567 35.3006 127.312 35.0505C126.609 34.7457 126.158 34.2162 125.958 33.4617C125.713 33.9056 125.368 34.2233 124.922 34.4149C124.847 34.6383 124.687 34.7443 124.444 34.7327C124.219 35.0567 123.9 35.2156 123.488 35.2094C122.56 35.5421 121.604 35.5951 120.62 35.3682C120.197 35.3825 119.825 35.2767 119.504 35.0505C119.241 35.0251 119.029 34.9192 118.867 34.7327C118.514 34.621 118.222 34.4092 117.991 34.0972C116.714 31.4818 117.431 29.6282 120.142 28.5363C120.346 28.309 120.611 28.203 120.938 28.2186C121.583 27.9389 122.274 27.78 123.01 27.7419H123.329C124.041 27.5853 124.785 27.5323 125.559 27.583C125.586 26.1521 125.559 24.7222 125.48 23.2932C125.279 22.5377 124.827 22.0082 124.125 21.7044H122.691C121.216 22.264 120.711 23.3231 121.178 24.882C121.283 25.1178 121.416 25.3296 121.576 25.5176H122.532V25.9942H122.054C121.262 26.1981 120.465 26.1981 119.664 25.9942C118.586 25.7816 118.055 25.1197 118.07 24.0082C118.053 23.6553 118.16 23.3641 118.389 23.1343C118.8 22.2486 119.49 21.719 120.46 21.5455C122.671 20.8827 124.848 20.9356 126.993 21.7044ZM125.48 32.5084C125.559 31.0265 125.586 29.5435 125.559 28.0597C125.032 28.1472 124.501 28.2001 123.966 28.2186C123.518 28.468 123.04 28.6798 122.532 28.8541C121.465 30.1655 121.146 31.6485 121.576 33.3028C121.649 34.0886 122.074 34.5122 122.851 34.5738C123.735 34.3975 124.479 33.9737 125.081 33.3028C125.173 33.0239 125.305 32.7591 125.48 32.5084ZM170.972 23.9287C170.706 22.7106 169.963 21.9693 168.741 21.7044C166.768 21.0155 164.749 20.9097 162.686 21.3866C162.359 21.3711 162.093 21.477 161.889 21.7044C160.96 21.9669 160.297 22.5495 159.898 23.4521C159.686 24.3279 159.925 25.0163 160.615 25.5176C160.839 25.8415 161.158 26.0004 161.571 25.9942C162.315 26.206 163.057 26.206 163.801 25.9942H164.279V25.5176H163.323C163.164 25.3296 163.03 25.1178 162.925 24.882C162.46 23.3231 162.963 22.264 164.439 21.7044H165.873C166.576 22.0082 167.026 22.5377 167.227 23.2932C167.307 24.7222 167.334 26.1521 167.307 27.583C165.894 27.5169 164.512 27.6758 163.164 28.0597C162.68 28.0967 162.254 28.2556 161.889 28.5363C160.865 28.764 160.121 29.3466 159.659 30.284C159.56 30.3017 159.48 30.3546 159.419 30.4429C159.063 31.3482 159.008 32.2486 159.26 33.1439C159.596 34.1421 160.261 34.7777 161.252 35.0505C161.561 35.3147 161.932 35.4205 162.367 35.3682C162.681 35.4736 163.027 35.5265 163.403 35.5271C164.055 35.5381 164.667 35.4323 165.235 35.2094C165.648 35.2156 165.967 35.0567 166.192 34.7327C166.435 34.7443 166.595 34.6383 166.67 34.4149C167.116 34.2233 167.46 33.9056 167.705 33.4617C167.904 34.2162 168.357 34.7457 169.06 35.0505C169.315 35.3006 169.633 35.4065 170.016 35.3682C170.516 35.5495 171.047 35.5761 171.609 35.4477C171.984 35.4095 172.302 35.2772 172.565 35.0505C172.863 34.9934 173.102 34.8346 173.282 34.5738C173.681 33.9407 173.865 33.2523 173.84 32.5084H172.884C172.96 33.34 172.694 34.0285 172.087 34.5738H171.609C171.565 34.4485 171.485 34.3425 171.37 34.2561C171.29 31.2378 171.263 28.219 171.29 25.1998C171.176 24.8401 171.123 24.4694 171.131 24.0876C171.131 23.9817 171.079 23.9287 170.972 23.9287ZM167.227 32.5084C167.054 32.7591 166.92 33.0239 166.829 33.3028C166.227 33.9737 165.482 34.3975 164.598 34.5738C163.773 34.4706 163.349 33.9939 163.323 33.1439C162.915 31.5424 163.234 30.1124 164.279 28.8541C164.788 28.6798 165.266 28.468 165.714 28.2186C166.249 28.2001 166.779 28.1472 167.307 28.0597C167.334 29.5435 167.307 31.0265 167.227 32.5084ZM202.521 22.0222C202.204 21.7579 201.831 21.5725 201.406 21.4661C199.545 20.9906 197.685 20.9642 195.829 21.3866C193.807 21.6269 192.876 22.739 193.041 24.7232C193.213 25.3457 193.611 25.7165 194.236 25.8353C194.722 26.0633 195.252 26.1693 195.829 26.1531C196.18 26.1523 196.498 26.0994 196.785 25.9942H197.263V25.5176C196.858 25.5805 196.513 25.4745 196.227 25.1998C195.706 24.1523 195.786 23.1461 196.466 22.1811C196.868 22.0597 197.239 21.9008 197.582 21.7044H198.857C199.465 21.8649 199.916 22.2355 200.211 22.8166C200.434 24.3949 200.514 25.9837 200.45 27.583C199.676 27.5323 198.931 27.5853 198.219 27.7419C197.56 27.7465 196.922 27.8525 196.307 28.0597C195.942 28.0748 195.624 28.1807 195.351 28.3774C194.833 28.4242 194.408 28.6359 194.076 29.013C192.862 29.6053 192.225 30.5851 192.164 31.9523C192.153 33.5514 192.897 34.5842 194.395 35.0505C194.599 35.2778 194.865 35.3838 195.192 35.3682C196.543 35.6768 197.818 35.5179 199.016 34.8916C199.521 34.8106 199.894 34.5457 200.131 34.0972C200.34 33.9421 200.554 33.7832 200.769 33.6205C201.124 34.6107 201.814 35.1932 202.84 35.3682C203.498 35.563 204.136 35.563 204.752 35.3682C204.971 35.3932 205.184 35.3666 205.39 35.2888C206.513 34.7173 207.045 33.7905 206.983 32.5084H206.027C206.041 33.3128 205.777 34.0014 205.23 34.5738C204.566 34.5189 204.274 34.148 204.354 33.4617C204.328 31.8993 204.301 30.337 204.274 28.7746C204.247 27.2123 204.221 25.65 204.195 24.0876C203.951 23.1316 203.393 22.443 202.521 22.0222ZM200.37 32.3495C200.45 30.9205 200.477 29.4906 200.45 28.0597C199.923 28.1472 199.392 28.2001 198.857 28.2186C198.584 28.4153 198.265 28.5212 197.901 28.5363C197.539 28.8169 197.193 29.1347 196.865 29.4896C196.328 30.7039 196.168 31.975 196.387 33.3028C196.554 34.2381 197.112 34.6618 198.06 34.5738H198.219C198.487 34.3342 198.806 34.1754 199.175 34.0972C199.65 33.5743 200.048 32.9917 200.37 32.3495ZM232.637 21.7044C232.937 21.6613 233.148 21.7673 233.274 22.0222C233.518 22.0106 233.677 22.1165 233.752 22.3399C234.071 22.3399 234.23 22.4988 234.23 22.8166C234.871 23.3492 235.269 24.0376 235.425 24.882C235.607 25.9338 235.687 26.9929 235.664 28.0597H226.901C226.788 30.1781 227.159 32.1904 228.016 34.0972C228.319 34.135 228.532 34.2939 228.653 34.5738C229.594 34.9159 230.55 34.969 231.522 34.7327C231.794 34.536 232.113 34.43 232.478 34.415C233.354 33.8314 233.964 33.037 234.31 32.0317C234.39 31.7182 234.415 31.4005 234.39 31.0784H235.346C235.349 32.2362 234.924 33.1895 234.071 33.9383C234.071 34.0443 234.018 34.0972 233.912 34.0972C233.791 34.3771 233.577 34.536 233.274 34.5738C233.05 34.8978 232.731 35.0567 232.318 35.0505C231.552 35.3991 230.73 35.5579 229.849 35.5271C229.092 35.5368 228.375 35.431 227.697 35.2094C227.262 35.2616 226.891 35.1558 226.582 34.8916C224.487 34.0943 223.292 32.5586 222.997 30.284C222.86 28.6869 222.912 27.0981 223.156 25.5176C223.476 24.0106 224.3 22.8984 225.626 22.1811C225.851 21.8571 226.169 21.6982 226.582 21.7044C226.902 21.4782 227.275 21.3723 227.697 21.3866C229.375 20.9534 231.021 21.0593 232.637 21.7044ZM230.566 21.8633C230.041 21.751 229.511 21.698 228.972 21.7044C228.811 21.8909 228.598 21.9967 228.335 22.0222C227.965 22.4413 227.672 22.9179 227.458 23.4521C227.154 24.7595 226.968 26.0835 226.901 27.4242H231.84C231.791 26.015 231.632 24.4791 231.362 22.8166L231.33 22.7774L231.235 22.6643C231.015 22.4001 230.793 22.1331 230.566 21.8633ZM249.527 22.6577C249.232 21.9408 248.702 21.5171 247.934 21.3866C247.229 21.0377 246.485 20.9848 245.703 21.2278C244.42 21.5541 243.464 22.2956 242.835 23.4521C242.886 22.7321 242.832 22.0435 242.676 21.3866H242.516H236.939C236.906 21.6534 237.011 21.8123 237.258 21.8633H239.011L239.011 34.7327H236.939C236.906 34.9995 237.011 35.1584 237.258 35.2094H244.906C245.153 35.1584 245.258 34.9995 245.225 34.7327H242.835C242.808 31.9253 242.835 29.1185 242.915 26.312C243.16 24.9758 243.665 23.7576 244.428 22.6577C244.535 22.6577 244.588 22.6048 244.588 22.4988C244.895 22.4019 245.161 22.243 245.384 22.0222H246.181C246.512 22.352 246.779 22.7228 246.978 23.1343C247.032 23.9971 246.952 24.8445 246.739 25.6765C246.512 25.9818 246.221 26.1936 245.862 26.312C246.049 26.5848 246.315 26.6908 246.659 26.6297C247.223 26.6795 247.755 26.6264 248.252 26.4709C248.552 26.5139 248.764 26.4079 248.89 26.1531C249.228 26.0687 249.467 25.8568 249.607 25.5176C250.157 24.5287 250.13 23.5754 249.527 22.6577ZM179.736 21.3866H173.999V21.8633H174.477H176.071V34.7327H173.999V35.2094H174.477H181.488C181.735 35.1584 181.84 34.9995 181.807 34.7327H180.054V26.4709C180.218 24.7646 180.962 23.3878 182.285 22.3399C182.65 22.3248 182.969 22.2189 183.241 22.0222C183.725 22.0234 184.204 22.0764 184.675 22.1811C185.128 22.6064 185.367 23.1359 185.392 23.7699C185.472 27.4238 185.499 31.0781 185.472 34.7327H183.719C183.686 34.9995 183.791 35.1584 184.038 35.2094H191.049C191.296 35.1584 191.401 34.9995 191.367 34.7327H189.296C189.323 31.1839 189.296 27.6356 189.216 24.0876C189.165 23.5846 188.979 23.1609 188.659 22.8166C188.221 21.9882 187.531 21.5115 186.587 21.3866C185.383 20.9791 184.16 20.9791 182.922 21.3866C181.649 21.7273 180.666 22.4688 179.975 23.611C179.947 22.8403 179.868 22.0988 179.736 21.3866ZM97.5153 34.5738C97.0305 34.2999 96.7385 33.8762 96.6389 33.3028C96.6642 29.2746 96.5315 25.3026 96.2405 21.3866H90.6636C90.6293 21.6534 90.7356 21.8123 90.9823 21.8633H92.5757C92.5491 25.2532 92.5757 28.6426 92.6553 32.0317C92.6963 32.6477 92.8556 33.2302 93.1334 33.7794C93.3574 34.2416 93.7025 34.5594 94.1691 34.7327C94.3939 35.0567 94.7126 35.2156 95.1251 35.2094C96.5795 35.6769 98.0135 35.624 99.4274 35.0505C99.8399 35.0567 100.159 34.8978 100.383 34.5738C101.124 34.179 101.682 33.5964 102.056 32.8261C102.084 33.6498 102.164 34.4442 102.296 35.2094H102.455H107.554C107.8 35.1584 107.907 34.9995 107.872 34.7327H105.96C106.065 30.2279 105.959 25.7792 105.642 21.3866H99.9054V21.8633H100.383H101.977C102.003 24.7765 101.977 27.6895 101.897 30.6018C101.747 31.1299 101.614 31.6595 101.499 32.1906C101.026 32.9739 100.442 33.6623 99.746 34.2561C99.0335 34.5287 98.29 34.6345 97.5153 34.5738ZM215.428 21.8633C215.223 21.9009 215.063 21.848 214.95 21.7044C214.341 21.6907 213.757 21.7967 213.197 22.0222C212.973 22.3094 212.788 22.6272 212.64 22.9755C212.178 24.7085 212.125 26.4562 212.48 28.2186C212.91 29.5859 213.841 30.1155 215.269 29.8074C215.323 29.6742 215.43 29.6212 215.587 29.6485C216.204 29.0187 216.575 28.2772 216.703 27.4242C216.73 26.3636 216.703 25.3044 216.623 24.2465C216.526 23.5042 216.287 22.8156 215.906 22.1811C215.662 22.1927 215.503 22.0867 215.428 21.8633Z" fill="white"/>
<g clip-path="url(#clip0_6_2388)">
<path d="M26.6305 15.5339L26.1784 15.3432C25.436 15.0295 24.6637 14.8726 23.8832 14.8726C21.6255 14.8726 19.5524 16.1809 18.5562 18.1859H26.0858L25.6212 20.4338H17.9451C17.9358 20.5612 17.9304 20.6919 17.9304 20.8226C17.9304 21.144 17.9587 21.4708 18.0132 21.7998H25.3429L24.881 24.0482H18.8885C19.9811 25.7471 21.8418 26.776 23.8832 26.776C24.5755 26.776 25.2699 26.6496 25.9465 26.3969L26.4857 26.1964V29.3594L26.1899 29.4383C25.4318 29.6431 24.6551 29.7466 23.8832 29.7466C20.2083 29.7466 16.9021 27.4688 15.5736 24.0482H13.6721V21.7998H15.0208C14.9793 21.4556 14.9592 21.1342 14.9592 20.8226C14.9592 20.6941 14.9625 20.5612 14.9679 20.4338H13.6721V18.1859H15.3688C16.5208 14.4696 19.9779 11.8987 23.8832 11.8987C24.9203 11.8987 25.9388 12.0811 26.9138 12.4368L27.2379 12.5567L26.6305 15.5339Z" fill="#D8AD41"/>
</g>
<defs>
<clipPath id="clip0_6_2388">
<rect width="17.848" height="17.848" fill="white" transform="translate(11.531 11.8987)"/>
</clipPath>
</defs>
</svg>
